<?xml version="1.0" encoding="UTF-8" standalone="no"?>
<svg
   xmlns:dc="http://purl.org/dc/elements/1.1/"
   xmlns:cc="http://creativecommons.org/ns#"
   xmlns:rdf="http://www.w3.org/1999/02/22-rdf-syntax-ns#"
   xmlns:svg="http://www.w3.org/2000/svg"
   xmlns="http://www.w3.org/2000/svg"
   xmlns:sodipodi="http://sodipodi.sourceforge.net/DTD/sodipodi-0.dtd"
   xmlns:inkscape="http://www.inkscape.org/namespaces/inkscape"
   version="1.1"
   id="Layer_1"
   x="0px"
   y="0px"
   viewBox="0 0 512 512"
   style="enable-background:new 0 0 512 512;"
   xml:space="preserve"
   sodipodi:docname="add-user-add-svgrepo-com.svg"
   inkscape:version="1.0.2 (e86c870879, 2021-01-15, custom)"><metadata
   id="metadata55"><rdf:RDF><cc:Work
       rdf:about=""><dc:format>image/svg+xml</dc:format><dc:type
         rdf:resource="http://purl.org/dc/dcmitype/StillImage" /></cc:Work></rdf:RDF></metadata><defs
   id="defs53" /><sodipodi:namedview
   pagecolor="#ffffff"
   bordercolor="#666666"
   borderopacity="1"
   objecttolerance="10"
   gridtolerance="10"
   guidetolerance="10"
   inkscape:pageopacity="0"
   inkscape:pageshadow="2"
   inkscape:window-width="1920"
   inkscape:window-height="1051"
   id="namedview51"
   showgrid="false"
   inkscape:zoom="1.71875"
   inkscape:cx="243.10183"
   inkscape:cy="278.10909"
   inkscape:window-x="-9"
   inkscape:window-y="-9"
   inkscape:window-maximized="1"
   inkscape:current-layer="Layer_1" />
<g
   id="g6">
	<g
   id="g4">
		<path
   d="M300.434,257.599c-25.945,27.304-60.622,43.875-98.602,43.875c-37.979,0-72.656-16.571-98.602-43.875    c-45.617,28.738-77.826,76.818-85.092,132.736c-1.659,12.77,8.291,24.107,21.201,24.107h225.846    c0-53.371,32.011-99.402,77.838-119.914C330.812,280.165,316.452,267.69,300.434,257.599z"
   id="path2" />
	</g>
</g>
<g
   id="g12">
	<g
   id="g10">
		<ellipse
   cx="201.828"
   cy="133.868"
   rx="112.229"
   ry="133.868"
   id="ellipse8" />
	</g>
</g>
<g
   id="g18">
	<g
   id="g16">
		<path
   d="M396.486,316.885c-53.794,0-97.558,43.764-97.558,97.558S342.693,512,396.486,512c53.792,0,97.557-43.764,97.557-97.558    S450.279,316.885,396.486,316.885z M435.199,431.315h-21.841v21.841c0,9.318-7.554,16.872-16.872,16.872    c-9.318,0-16.872-7.554-16.872-16.872v-21.841h-21.842c-9.318,0-16.872-7.554-16.872-16.872c0-9.319,7.554-16.872,16.872-16.872    h21.842v-21.841c0-9.318,7.554-16.872,16.872-16.872c9.318,0,16.872,7.554,16.872,16.872v21.841h21.841    c9.318,0,16.872,7.554,16.872,16.872C452.072,423.761,444.518,431.315,435.199,431.315z"
   id="path14" />
	</g>
</g>
<g
   id="g20">
</g>
<g
   id="g22">
</g>
<g
   id="g24">
</g>
<g
   id="g26">
</g>
<g
   id="g28">
</g>
<g
   id="g30">
</g>
<g
   id="g32">
</g>
<g
   id="g34">
</g>
<g
   id="g36">
</g>
<g
   id="g38">
</g>
<g
   id="g40">
</g>
<g
   id="g42">
</g>
<g
   id="g44">
</g>
<g
   id="g46">
</g>
<g
   id="g48">
</g>
<path
   style="fill:#f9f9f9;stroke-width:10.995"
   d="m 34.050469,413.32184 c -6.340141,-1.70375 -11.034617,-5.68839 -13.8991,-11.79747 -2.18241,-4.65442 -2.065435,-11.78843 0.387948,-23.65997 5.918138,-28.63697 17.693517,-54.07764 35.939053,-77.64622 6.453678,-8.3365 22.398983,-24.34572 30.503448,-30.6257 6.97849,-5.40748 15.354472,-11.26521 16.108162,-11.26521 0.28055,0 2.0728,1.59209 3.98278,3.53798 7.13185,7.26592 18.23665,15.76626 28.39306,21.73392 15.19422,8.92775 32.72307,14.88902 50.716,17.24766 6.76154,0.88635 24.77111,0.89497 31.12727,0.0149 30.27617,-4.19202 56.16488,-16.76732 78.38078,-38.07302 l 4.78078,-4.5849 3.07376,1.88399 c 10.03105,6.14828 25.44008,19.2939 34.84537,29.72699 l 4.0651,4.50933 -6.42266,3.28526 c -40.94385,20.94329 -68.61869,63.61855 -70.83354,109.22698 l -0.36025,7.41819 -113.80103,-0.0383 C 52.777204,414.1832 36.801293,414.06105 34.050469,413.32184 Z"
   id="path880" /><path
   style="fill:#f9f9f9;stroke-width:10.995"
   d="m 192.89328,267.04209 c -19.00461,-1.97778 -38.00866,-9.96719 -53.54783,-22.51181 -4.98807,-4.02682 -14.31541,-13.37795 -18.38256,-18.42945 C 106.85075,208.57324 96.549613,185.05176 92.269106,160.58182 79.579895,88.042694 119.9922,16.350018 181.27736,2.678434 c 58.6113,-13.075097 115.50997,31.157468 129.39972,100.594296 2.22799,11.13805 2.8508,17.81127 2.8508,30.54545 0,12.79816 -0.61767,19.36146 -2.90199,30.83637 -8.32423,41.81536 -32.91003,76.15386 -66.26225,92.54721 -16.1462,7.93621 -35.04612,11.54958 -51.47036,9.84033 z"
   id="path882" /><path
   style="fill:#f9f9f9;stroke-width:10.995"
   d="m 389.48886,511.31365 c -16.79744,-0.9871 -34.82805,-7.48726 -49.40094,-17.80939 -6.62406,-4.69188 -17.06434,-14.95122 -21.73746,-21.36073 -7.58815,-10.40767 -12.97221,-21.87568 -16.12323,-34.34244 -4.33357,-17.14539 -3.67855,-36.43037 1.81355,-53.39351 2.09922,-6.48376 7.59696,-17.8329 11.33027,-23.3894 15.21928,-22.65176 38.1777,-37.63876 65.13804,-42.5214 7.96203,-1.44195 23.91088,-1.43589 32,0.0122 19.61378,3.51113 36.69988,12.12606 50.83912,25.63344 14.83093,14.16816 24.18837,31.17137 28.65909,52.07579 1.73159,8.09664 1.8995,26.38034 0.31919,34.75536 -3.91435,20.74444 -12.90826,37.75953 -27.75982,52.51737 -12.42414,12.34572 -27.02075,20.66292 -43.90219,25.01562 -10.51457,2.71106 -19.31919,3.50386 -31.17562,2.80712 z m 12.95784,-42.10887 c 3.37464,-1.14984 7.00423,-4.24916 9.04831,-7.72636 l 1.5959,-2.71478 0.18378,-13.48765 0.18379,-13.48766 12.90712,-0.18507 c 12.02449,-0.17242 13.10606,-0.27664 15.81622,-1.52397 3.68704,-1.69695 6.377,-4.27022 8.33161,-7.9702 2.11952,-4.01216 2.21778,-10.88133 0.21383,-14.94974 -1.91216,-3.88206 -5.45093,-7.18844 -9.19166,-8.58802 -2.83961,-1.06244 -4.51329,-1.18951 -15.66651,-1.18951 h -12.48727 l -0.006,-12.94546 c -0.005,-12.38596 -0.065,-13.07322 -1.38216,-15.90182 -1.67024,-3.58697 -4.75477,-6.6904 -8.40258,-8.4541 -2.08102,-1.00615 -3.74183,-1.31438 -7.08217,-1.31438 -7.24371,0 -12.54015,3.40942 -15.62226,10.05635 -1.44667,3.11993 -1.5162,3.75642 -1.73311,15.86613 l -0.22598,12.6158 -13.17296,0.1842 c -12.42898,0.17378 -13.31397,0.25948 -15.6697,1.51735 -12.51724,6.68374 -12.46164,24.23183 0.0977,30.83445 2.93433,1.54262 3.18191,1.57017 15.86306,1.76555 l 12.8822,0.19847 0.23997,12.60691 c 0.22172,11.64835 0.34312,12.84047 1.59681,15.67858 1.61581,3.65793 5.96706,7.80445 9.50403,9.05686 3.25591,1.1529 8.88593,1.17975 12.17785,0.0581 z"
   id="path884" /><path
   style="fill:#f9f9f9;stroke-width:10.995"
   d="m 187.05455,265.91578 c -17.95958,-3.30754 -34.40493,-10.95375 -48.2945,-22.45437 -5.72999,-4.74445 -15.742,-15.15768 -19.83716,-20.63213 -11.86754,-15.8646 -21.112356,-36.89284 -25.460816,-57.91313 -2.447446,-11.83085 -3.147205,-20.50308 -2.81444,-34.87979 0.343179,-14.82667 1.087123,-20.68502 4.248343,-33.454542 9.519873,-38.454828 33.209583,-70.082981 63.940383,-85.366862 14.92925,-7.4250227 26.8812,-10.25230524 43.34546,-10.25355306 8.78416,-6.6327e-4 11.18825,0.21088806 17.51363,1.54115416 25.9793,5.4636078 48.0726,20.0311369 65.34901,43.0887739 13.76637,18.373038 22.95008,41.135569 26.91042,66.699579 1.48515,9.58667 1.46302,33.55604 -0.04,43.34545 -8.79018,57.25099 -44.40362,99.41737 -92.63107,109.67537 -8.57376,1.82365 -24.03364,2.1134 -32.22923,0.60405 z"
   id="path886" /><path
   style="fill:#f9f9f9;stroke-width:10.995"
   d="m 121.30909,413.68102 -86.981817,-0.2992 -3.269825,-1.53319 c -7.064475,-3.31246 -11.546028,-9.67859 -12.020745,-17.07568 -0.656907,-10.23601 5.271419,-34.36876 12.794204,-52.08204 5.012127,-11.80164 11.453951,-23.31437 19.370239,-34.61818 6.916368,-9.87601 14.529081,-18.37798 27.114176,-30.28142 6.894476,-6.52105 23.005568,-18.88222 24.610388,-18.88222 0.25475,0 2.85885,2.25765 5.78691,5.017 9.27186,8.73763 23.02792,18.48754 33.59032,23.80785 9.02149,4.54416 20.55682,8.65149 31.07888,11.06611 16.69974,3.83229 37.43584,4.04573 54.10909,0.55695 26.19715,-5.48159 48.26566,-17.25317 69.01161,-36.81155 2.12143,-2 4.03173,-3.63636 4.24509,-3.63636 0.8837,0 11.03841,7.22527 16.96181,12.06864 7.41593,6.06377 16.95264,15.02895 21.18947,19.91959 l 2.97037,3.42874 -6.42075,3.28429 c -30.47423,15.58796 -54.37314,44.23629 -64.86507,77.75574 -3.40841,10.88914 -4.40532,16.80789 -5.9376,35.25209 l -0.3021,3.63637 -28.02641,-0.13717 c -15.41453,-0.0754 -67.16824,-0.2718 -115.00824,-0.43636 z"
   id="path888" /><path
   style="fill:#f9f9f9;stroke-width:10.995"
   d="M 386.79605,510.7812 C 372.31812,509.49034 356.1821,503.58262 342.4,494.52692 c -7.90591,-5.19467 -21.24435,-18.59761 -26.42818,-26.55596 -6.94424,-10.66099 -11.65831,-21.96098 -14.39937,-34.51641 -1.1729,-5.37244 -1.33222,-7.68764 -1.32126,-19.2 0.0134,-14.11003 0.66612,-18.86481 4.03839,-29.41944 2.21163,-6.922 9.62902,-21.37031 13.94625,-27.16581 14.83829,-19.91915 35.31718,-33.03258 59.94599,-38.38576 4.9626,-1.07864 7.65768,-1.26461 18.32727,-1.26461 10.8048,0 13.34142,0.17935 18.61818,1.31635 22.64438,4.87925 41.78447,16.52465 56.55569,34.41017 8.98604,10.88063 16.32606,26.22812 19.70875,41.2097 1.48873,6.59338 2.12141,23.75282 1.16208,31.51758 -4.49936,36.41759 -30.52484,68.03279 -65.58474,79.67094 -14.04837,4.66336 -25.30674,5.96302 -40.173,4.63753 z m 16.16552,-41.46985 c 3.10345,-1.10934 6.05806,-3.59046 8.29279,-6.96382 l 1.98877,-3.00208 0.23386,-13.20693 c 0.12862,-7.26382 0.42639,-13.39948 0.66173,-13.63481 0.23533,-0.23533 6.24857,-0.58699 13.36275,-0.78146 11.72981,-0.32065 13.15803,-0.47065 15.32993,-1.61011 5.96654,-3.13026 8.97836,-7.75155 9.40723,-14.43435 0.4649,-7.24411 -2.4364,-12.84133 -8.50566,-16.40916 l -2.71479,-1.5959 -13.81818,-0.18352 -13.81818,-0.18352 v -13.22952 c 0,-13.05978 -0.0193,-13.26822 -1.50336,-16.24636 -3.2175,-6.45668 -9.60158,-9.91936 -17.01228,-9.22734 -6.43231,0.60066 -11.04792,3.80254 -14.13806,9.80768 -1.15781,2.25 -1.33211,3.76712 -1.74964,15.22944 -0.25505,7.00178 -0.61033,12.87711 -0.78951,13.05628 -0.17917,0.17918 -6.2759,0.47248 -13.54828,0.6518 -12.50968,0.30844 -13.33922,0.39856 -15.38749,1.67168 -12.05482,7.49275 -11.33966,25.15618 1.26968,31.35941 1.68266,0.82779 4.3721,1.07786 14.71627,1.36834 6.96153,0.19549 12.80436,0.50247 12.98405,0.68217 0.1797,0.1797 0.52656,6.04753 0.7708,13.03963 0.40078,11.47339 0.56955,12.95637 1.731,15.20979 1.68837,3.27576 5.39513,6.93323 8.41742,8.30549 2.8855,1.31016 10.56083,1.49187 13.81915,0.32717 z"
   id="path890" /></svg>
