<?xml version="1.0" encoding="UTF-8" standalone="no"?>
<svg
   xmlns:dc="http://purl.org/dc/elements/1.1/"
   xmlns:cc="http://creativecommons.org/ns#"
   xmlns:rdf="http://www.w3.org/1999/02/22-rdf-syntax-ns#"
   xmlns:svg="http://www.w3.org/2000/svg"
   xmlns="http://www.w3.org/2000/svg"
   xmlns:sodipodi="http://sodipodi.sourceforge.net/DTD/sodipodi-0.dtd"
   xmlns:inkscape="http://www.inkscape.org/namespaces/inkscape"
   id="_x31_px"
   enable-background="new 0 0 24 24"
   height="512"
   viewBox="0 0 24 24"
   width="512"
   version="1.1"
   sodipodi:docname="add.svg"
   inkscape:version="1.0.2 (e86c870879, 2021-01-15, custom)">
  <metadata
     id="metadata31">
    <rdf:RDF>
      <cc:Work
         rdf:about="">
        <dc:format>image/svg+xml</dc:format>
        <dc:type
           rdf:resource="http://purl.org/dc/dcmitype/StillImage" />
      </cc:Work>
    </rdf:RDF>
  </metadata>
  <defs
     id="defs29" />
  <sodipodi:namedview
     pagecolor="#ffffff"
     bordercolor="#666666"
     borderopacity="1"
     objecttolerance="10"
     gridtolerance="10"
     guidetolerance="10"
     inkscape:pageopacity="0"
     inkscape:pageshadow="2"
     inkscape:window-width="1920"
     inkscape:window-height="1051"
     id="namedview27"
     showgrid="false"
     inkscape:zoom="1.71875"
     inkscape:cx="256"
     inkscape:cy="22.109091"
     inkscape:window-x="-9"
     inkscape:window-y="-9"
     inkscape:window-maximized="1"
     inkscape:current-layer="_x31_px" />
  <path
     d="m17.5 24c-3.584 0-6.5-2.916-6.5-6.5s2.916-6.5 6.5-6.5 6.5 2.916 6.5 6.5-2.916 6.5-6.5 6.5zm0-12c-3.033 0-5.5 2.468-5.5 5.5s2.467 5.5 5.5 5.5 5.5-2.468 5.5-5.5-2.467-5.5-5.5-5.5z"
     id="path2" />
  <path
     d="m18.5 8h-15c-1.93 0-3.5-1.57-3.5-3.5s1.57-3.5 3.5-3.5h15c1.93 0 3.5 1.57 3.5 3.5s-1.57 3.5-3.5 3.5zm-15-6c-1.378 0-2.5 1.121-2.5 2.5s1.122 2.5 2.5 2.5h15c1.378 0 2.5-1.121 2.5-2.5s-1.122-2.5-2.5-2.5z"
     id="path4" />
  <path
     d="m9.5 14h-6c-1.93 0-3.5-1.57-3.5-3.5 0-.934.364-1.812 1.026-2.474s1.541-1.026 2.474-1.026h15c1.416 0 2.681.839 3.221 2.138.106.255-.014.548-.269.654-.253.104-.548-.014-.654-.27-.385-.924-1.287-1.522-2.298-1.522h-15c-.666 0-1.293.261-1.767.733s-.733 1.101-.733 1.767c0 1.379 1.122 2.5 2.5 2.5h6c.276 0 .5.224.5.5s-.224.5-.5.5z"
     id="path6" />
  <path
     d="m8.5 20h-5c-1.93 0-3.5-1.57-3.5-3.5 0-.934.364-1.812 1.026-2.474s1.541-1.026 2.474-1.026h6c.276 0 .5.224.5.5s-.224.5-.5.5h-6c-.666 0-1.293.261-1.767.733s-.733 1.101-.733 1.767c0 1.379 1.122 2.5 2.5 2.5h5c.276 0 .5.224.5.5s-.224.5-.5.5z"
     id="path8" />
  <path
     d="m4.5 12c-.827 0-1.5-.673-1.5-1.5s.673-1.5 1.5-1.5 1.5.673 1.5 1.5-.673 1.5-1.5 1.5zm0-2c-.276 0-.5.225-.5.5s.224.5.5.5.5-.225.5-.5-.224-.5-.5-.5z"
     id="path10" />
  <path
     d="m9.5 12c-.827 0-1.5-.673-1.5-1.5s.673-1.5 1.5-1.5 1.5.673 1.5 1.5-.673 1.5-1.5 1.5zm0-2c-.276 0-.5.225-.5.5s.224.5.5.5.5-.225.5-.5-.224-.5-.5-.5z"
     id="path12" />
  <path
     d="m4.5 18c-.827 0-1.5-.673-1.5-1.5s.673-1.5 1.5-1.5 1.5.673 1.5 1.5-.673 1.5-1.5 1.5zm0-2c-.276 0-.5.225-.5.5s.224.5.5.5.5-.225.5-.5-.224-.5-.5-.5z"
     id="path14" />
  <path
     d="m9.5 18c-.827 0-1.5-.673-1.5-1.5s.673-1.5 1.5-1.5c.276 0 .5.224.5.5s-.224.5-.5.5-.5.225-.5.5.224.5.5.5.5.224.5.5-.224.5-.5.5z"
     id="path16" />
  <path
     d="m4.5 6c-.827 0-1.5-.673-1.5-1.5s.673-1.5 1.5-1.5 1.5.673 1.5 1.5-.673 1.5-1.5 1.5zm0-2c-.276 0-.5.225-.5.5s.224.5.5.5.5-.225.5-.5-.224-.5-.5-.5z"
     id="path18" />
  <path
     d="m9.5 6c-.827 0-1.5-.673-1.5-1.5s.673-1.5 1.5-1.5 1.5.673 1.5 1.5-.673 1.5-1.5 1.5zm0-2c-.276 0-.5.225-.5.5s.224.5.5.5.5-.225.5-.5-.224-.5-.5-.5z"
     id="path20" />
  <path
     d="m20.5 18h-6c-.276 0-.5-.224-.5-.5s.224-.5.5-.5h6c.276 0 .5.224.5.5s-.224.5-.5.5z"
     id="path22" />
  <path
     d="m17.5 21c-.276 0-.5-.224-.5-.5v-6c0-.276.224-.5.5-.5s.5.224.5.5v6c0 .276-.224.5-.5.5z"
     id="path24" />
  <path
     style="fill:#a0892c;stroke-width:10.995"
     d="m 154.32727,42.618199 c 44.24,-0.08226 116.63273,-0.08226 160.87273,0 44.24,0.08226 8.04364,0.149568 -80.43636,0.149568 -88.48,0 -124.67637,-0.06731 -80.43637,-0.149568 z"
     id="path856"
     transform="scale(0.046875)" />
  <path
     style="fill:#a0892c;stroke-width:10.995"
     d="M 65.745455,425.81659 C 48.551939,423.62146 32.741602,415.57266 20.760496,402.91545 -7.5231494,373.03573 -6.2074413,326.44702 23.720069,298.11813 c 2.679122,-2.53601 6.611636,-5.78459 8.738921,-7.21908 2.127285,-1.43447 3.876084,-2.75475 3.886219,-2.93393 0.01014,-0.17919 -1.730895,-1.48426 -3.868955,-2.90016 -2.138059,-1.4159 -6.078866,-4.64879 -8.757348,-7.18419 -31.1430933,-29.47954 -31.0939309,-78.32854 0.108555,-107.86429 2.738188,-2.59193 6.678995,-5.83058 8.757349,-7.19702 2.078355,-1.36644 3.778826,-2.64097 3.778826,-2.83228 0,-0.19132 -1.679757,-1.46025 -3.732794,-2.81984 -2.053038,-1.3596 -5.981156,-4.57558 -8.729152,-7.14663 C 11.609142,138.5197 3.7090359,123.40696 1.137205,106.47273 -2.4069834,83.135994 6.1499415,58.749724 23.717954,42.120136 34.179015,32.21787 46.617247,25.835325 61.275799,22.847734 66.039273,21.87688 75.930397,21.818182 234.76364,21.818182 c 159.44822,0 168.7088,0.05548 173.54174,1.039654 14.49063,2.950853 28.20391,10.1705 38.27286,20.149563 14.63734,14.506674 22.23307,32.611126 22.23307,52.992601 0,12.82654 -2.36534,22.64909 -8.18422,33.98668 -5.18952,10.11132 -14.4212,20.73437 -23.26426,26.77056 -2.30955,1.57649 -4.19919,3.03218 -4.19919,3.23489 0,0.2027 1.73607,1.51823 3.85793,2.92341 9.1163,6.03714 18.20081,16.50989 23.63899,27.25135 2.56829,5.07286 3.04386,6.50728 3.01886,9.10551 -0.079,8.21467 -9.06003,12.78786 -16.04089,8.16815 -1.51556,-1.00295 -2.68839,-2.56878 -3.99429,-5.33274 -2.37942,-5.03604 -5.28781,-9.59636 -8.63707,-13.54279 -6.14967,-7.24619 -16.98639,-13.90293 -26.86172,-16.50053 L 403.2,170.76364 H 234.18182 65.163636 l -5.109434,1.60282 c -20.01821,6.27967 -34.000821,21.42446 -37.978942,41.13557 -1.297728,6.43009 -0.897594,18.83877 0.788795,24.46161 2.770962,9.23906 6.576374,16.058 12.577781,22.53819 6.460889,6.97633 14.648096,12.00883 24.612366,15.12867 l 5.109434,1.59978 70.400004,0.29396 70.4,0.29394 2.15249,1.33842 c 6.51224,4.04931 6.51224,13.63749 0,17.6868 l -2.15249,1.33842 -70.4,0.29394 -70.400004,0.29396 -5.109434,1.59978 c -20.006151,6.264 -34.00064,21.42052 -37.978942,41.13253 -1.297728,6.43009 -0.897594,18.83877 0.788795,24.46161 2.770962,9.23906 6.576374,16.058 12.577781,22.53819 6.464637,6.98038 14.662336,12.01775 24.612366,15.12396 l 5.109434,1.59507 59.679364,0.29866 59.67936,0.29866 2.35924,1.56161 c 2.67806,1.77264 4.82749,5.61077 4.82749,8.62021 0,3.00969 -2.14942,6.84759 -4.82776,8.62021 l -2.35951,1.56161 -57.35182,0.0774 c -31.543498,0.0426 -59.184545,-0.15662 -61.424545,-0.4426 z M 405.53759,148.42909 c 20.03281,-4.13471 35.67776,-19.02179 41.09151,-39.10096 1.89433,-7.02593 1.89433,-19.630332 0,-26.656264 C 441.20022,62.53655 425.52975,47.664213 405.41253,43.554533 400.22362,42.494509 394.62077,42.463927 232.60669,42.611312 l -167.443054,0.152324 -5.109434,1.602821 c -19.047596,5.975198 -32.164217,19.443286 -37.503639,38.508568 -1.481112,5.288553 -1.414551,21.334035 0.109957,26.506795 2.77881,9.42869 6.743669,16.60068 12.781316,23.12001 7.800107,8.42239 19.086282,14.51758 30.396564,16.41591 1.548881,0.25997 77.43433,0.50002 168.63433,0.53345 159.5611,0.0585 166.01616,0.02 171.06486,-1.0221 z"
     id="path858"
     transform="scale(0.046875)" />
  <path
     style="fill:#a0892c;stroke-width:10.995"
     d=""
     id="path860"
     transform="scale(0.046875)" />
  <path
     style="fill:#a0892c;stroke-width:10.995"
     d="M 92.218182,127.33266 C 74.537082,125.52369 61.297917,107.43847 64.936659,90.065001 68.117224,74.879138 80.726587,64.516354 96,64.536137 c 15.06987,0.01952 27.328,9.858431 30.8642,24.772954 4.17542,17.610489 -9.02573,36.141959 -27.082382,38.017639 -2.08,0.21607 -5.483636,0.21874 -7.563636,0.006 z m 9.971258,-22.29859 c 6.21486,-4.1128 6.10874,-14.02557 -0.19481,-18.197058 -3.451969,-2.284406 -8.537291,-2.284406 -11.989262,0 -7.51576,4.973695 -5.893103,16.916348 2.673241,19.674888 2.586061,0.83276 7.072776,0.1356 9.510831,-1.47783 z"
     id="path862"
     transform="scale(0.046875)" />
  <path
     style="fill:#a0892c;stroke-width:10.995"
     d="m 194.61818,126.57712 c -8.00133,-2.25236 -13.97573,-6.70804 -18.70932,-13.95334 -6.38677,-9.77567 -6.38799,-23.461651 -0.003,-33.247565 6.19625,-9.496598 14.33404,-14.181587 25.47327,-14.66517 9.58662,-0.41618 16.87823,2.411061 23.5021,9.112677 17.11954,17.320478 9.62003,45.664388 -13.93232,52.656308 -3.77738,1.12139 -12.50764,1.17329 -16.33076,0.0971 z m 11.33234,-20.17153 c 3.08238,-0.85573 6.41603,-4.26627 7.27,-7.437663 2.31272,-8.588767 -6.02572,-16.317237 -14.22612,-13.185473 -9.28006,3.544086 -9.65211,16.074446 -0.59939,20.187016 2.70908,1.23071 4.35185,1.32553 7.55551,0.43612 z"
     id="path864"
     transform="scale(0.046875)" />
  <path
     style="fill:#a0892c;stroke-width:10.995"
     d="M 92.218182,255.33266 C 74.537082,253.52369 61.297917,235.43847 64.936659,218.065 68.117224,202.87914 80.726587,192.51635 96,192.53614 c 15.06987,0.0195 27.328,9.85843 30.8642,24.77295 4.17542,17.61049 -9.02573,36.14196 -27.082382,38.01764 -2.08,0.21607 -5.483636,0.21874 -7.563636,0.006 z m 9.971258,-22.29859 c 6.21486,-4.1128 6.10874,-14.02557 -0.19481,-18.19706 -3.451969,-2.2844 -8.537291,-2.2844 -11.989262,0 -7.51576,4.9737 -5.893103,16.91635 2.673241,19.67489 2.586061,0.83276 7.072776,0.1356 9.510831,-1.47783 z"
     id="path866"
     transform="scale(0.046875)" />
  <path
     style="fill:#a0892c;stroke-width:10.995"
     d="m 194.61818,254.57712 c -8.00133,-2.25236 -13.97573,-6.70804 -18.70932,-13.95334 -6.38677,-9.77567 -6.38799,-23.46165 -0.003,-33.24756 6.19625,-9.4966 14.33404,-14.18159 25.47327,-14.66518 9.58662,-0.41618 16.87823,2.41107 23.5021,9.11268 17.11954,17.32048 9.62003,45.66439 -13.93232,52.65631 -3.77738,1.12139 -12.50764,1.17329 -16.33076,0.0971 z m 11.33234,-20.17153 c 3.08238,-0.85573 6.41603,-4.26627 7.27,-7.43766 2.31272,-8.58877 -6.02572,-16.31724 -14.22612,-13.18548 -9.28006,3.54409 -9.65211,16.07445 -0.59939,20.18702 2.70908,1.23071 4.35185,1.32553 7.55551,0.43612 z"
     id="path868"
     transform="scale(0.046875)" />
  <path
     style="fill:#a0892c;stroke-width:10.995"
     d="m 364.75742,511.36204 c -45.10059,-2.69305 -86.51855,-28.03051 -110.23242,-67.43477 -24.01408,-39.90311 -25.9635,-89.63356 -5.15405,-131.48182 20.45453,-41.13451 57.50337,-68.32812 103.50178,-75.96964 7.72474,-1.28328 24.93864,-1.73734 33.47624,-0.88302 35.88344,3.59069 69.70764,21.35109 92.57906,48.61138 35.50416,42.31716 42.74386,100.84501 18.52051,149.72516 -13.92446,28.09809 -35.71568,49.92608 -63.41218,63.51919 -16.01635,7.86064 -34.35216,12.88655 -49.97685,13.69883 -3.23273,0.16807 -7.18678,0.38731 -8.78678,0.48722 -1.6,0.0999 -6.33189,-0.0227 -10.51531,-0.27253 z m 18.66076,-20.88977 c 47.01139,-4.26997 86.93734,-35.78211 101.48895,-80.10163 4.1399,-12.60882 5.85651,-23.43741 5.85651,-36.94376 0,-26.32394 -7.75913,-49.65816 -23.54057,-70.79416 -18.55376,-24.84896 -46.73666,-41.46178 -77.57035,-45.72496 -8.55552,-1.18291 -24.30305,-1.18172 -32.79346,0.002 -62.04476,8.65375 -106.72779,65.42461 -100.55331,127.75538 3.47721,35.10206 22.53206,66.9637 51.67665,86.4086 22.22388,14.8275 49.24786,21.77663 75.43558,19.39804 z"
     id="path870"
     transform="scale(0.046875)" />
  <path
     style="fill:#a0892c;stroke-width:10.995"
     d="m 368.84388,446.5998 c -2.32279,-1.01174 -4.72138,-3.91217 -5.47282,-6.61787 -0.37328,-1.34405 -0.60216,-12.35775 -0.60418,-29.07284 L 362.76364,384 h -26.15318 c -17.31137,0 -27.19554,-0.22327 -29.23637,-0.6604 -9.66824,-2.07088 -11.40795,-14.80981 -2.60452,-19.07148 2.43378,-1.17818 3.31573,-1.21357 30.23435,-1.21357 h 27.72745 l 0.16159,-28.07273 c 0.15114,-26.25762 0.2333,-28.21716 1.2707,-30.30647 3.03365,-6.10974 12.18525,-7.37437 16.7596,-2.31597 2.72515,3.01352 2.78583,3.73314 2.78583,33.04011 v 27.65506 l 28.07273,0.01 c 28.02672,0.01 28.07651,0.0117 30.38279,1.31795 5.75012,3.25675 7.20722,10.22977 3.16291,15.13621 -3.58439,4.34849 -2.21669,4.17035 -33.52977,4.36705 l -28.05679,0.17624 -0.16139,28.37867 -0.16139,28.37866 -1.66739,2.18554 c -0.91707,1.20205 -2.48798,2.6859 -3.49091,3.29746 -2.1486,1.31015 -6.75729,1.45596 -9.416,0.2979 z"
     id="path872"
     transform="scale(0.046875)" />
  <path
     style="fill:#a0892c;stroke-width:10.995"
     d="m 194.61818,382.60477 c -8.12647,-2.3734 -13.98683,-6.75269 -18.70932,-13.98099 -6.38677,-9.77567 -6.38799,-23.46165 -0.003,-33.24756 5.80983,-8.90436 14.22315,-14.03817 24.01772,-14.65563 5.42236,-0.34183 8.01785,0.43283 10.3501,3.08911 3.29183,3.74919 3.52034,9.01147 0.57116,13.15321 -1.39371,1.95729 -5.50146,3.97858 -8.11947,3.99532 -2.81286,0.018 -6.34592,1.77109 -8.48948,4.21247 -3.24858,3.69992 -3.27336,9.93045 -0.0541,13.59699 2.31856,2.64069 4.47783,3.70676 8.7233,4.30685 6.2895,0.88902 9.96226,4.74479 9.95662,10.45273 -0.003,3.27541 -1.33302,5.86802 -4.08788,7.96993 -1.88733,1.43999 -2.68457,1.64419 -6.83698,1.75115 -2.58528,0.0666 -5.8787,-0.22302 -7.3187,-0.64358 z"
     id="path874"
     transform="scale(0.046875)" />
  <path
     style="fill:#000000;stroke-width:10.995;fill-opacity:0"
     d="M 92.218182,383.33266 C 74.537082,381.52369 61.297917,363.43847 64.936659,346.065 68.117224,330.87914 80.726587,320.51635 96,320.53614 c 15.06987,0.0195 27.328,9.85843 30.8642,24.77295 4.17542,17.61049 -9.02573,36.14196 -27.082382,38.01764 -2.08,0.21607 -5.483636,0.21874 -7.563636,0.006 z m 9.971258,-22.29859 c 6.21486,-4.1128 6.10874,-14.02557 -0.19481,-18.19706 -3.451969,-2.2844 -8.537291,-2.2844 -11.989262,0 -7.51576,4.9737 -5.893103,16.91635 2.673241,19.67489 2.586061,0.83276 7.072776,0.1356 9.510831,-1.47783 z"
     id="path876"
     transform="scale(0.046875)" />
  <path
     style="fill:#000000;fill-opacity:0;stroke-width:10.995"
     d=""
     id="path878"
     transform="scale(0.046875)" />
  <path
     style="fill:#000000;fill-opacity:0;stroke-width:10.995"
     d="M 64.581818,425.28569 C 44.56195,422.66105 24.720133,410.16343 13.408781,393.05371 4.8423612,380.09602 0.87853033,367.18323 0.87458612,352.22167 0.86834013,328.52882 11.538143,307.32133 30.872811,292.59664 c 3.019954,-2.2999 5.490825,-4.39562 5.490825,-4.65714 0,-0.26154 -1.950105,-1.91769 -4.333566,-3.68034 C 21.815728,276.7053 14.26276,267.87793 8.7523799,257.05386 3.3673165,246.47595 0.87272727,236.01155 0.87272727,224 c 0,-23.46664 10.74205073,-44.73704 30.00008373,-59.40336 3.019954,-2.2999 5.490825,-4.39562 5.490825,-4.65714 0,-0.26154 -2.029091,-1.96156 -4.509091,-3.77785 C 19.8319,147.35659 9.4922577,133.62462 4.9968642,120.49225 2.2734147,112.53624 1.3669807,107.51329 1.0420905,98.5771 0.67177449,88.391453 1.5562891,81.783558 4.445021,73.155016 12.661881,48.611539 32.048646,30.727537 57.679017,24.047449 L 64,22.4 h 170.47273 c 183.96461,0 171.77128,-0.203413 182.08903,3.037669 23.99762,7.538302 43.43292,27.896455 49.54584,51.898442 4.01646,15.770397 2.90769,32.516309 -3.07973,46.513359 -5.5455,12.96399 -14.27768,24.07008 -25.35514,32.24814 -2.48,1.83089 -4.50909,3.57046 -4.50909,3.86572 0,0.29525 2.47124,2.39425 5.49164,4.66444 9.3931,7.06 17.19267,16.58494 22.38879,27.34145 2.75271,5.69842 2.95768,8.05064 1.02137,11.72109 -2.61195,4.95117 -8.59374,6.6243 -13.46888,3.76727 -1.98573,-1.16372 -2.97653,-2.46479 -5.57669,-7.32307 -7.46176,-13.94199 -17.43183,-22.44347 -32.1605,-27.42329 l -6.49573,-2.19623 -169.53728,-0.0211 -169.537266,-0.0211 -4.135459,1.21233 c -6.469424,1.89655 -15.278496,6.49219 -20.568656,10.73052 -7.98326,6.39598 -13.554263,14.43336 -17.128572,24.71169 -1.912849,5.50062 -1.922136,5.58059 -1.925626,16.58182 -0.0031,9.96989 0.130233,11.4827 1.359553,15.41818 5.602123,17.93437 18.346528,30.66625 36.649843,36.61384 l 5.041641,1.63826 70.690912,0.40845 70.69091,0.40845 2.11133,1.37257 c 2.42766,1.57821 4.57958,5.53995 4.57958,8.43116 0,2.89147 -2.15191,6.853 -4.57958,8.43077 l -2.11133,1.37216 -70.4,0.38652 c -79.971912,0.43908 -72.956356,-0.0225 -84.36364,5.55027 -13.85465,6.76835 -23.667087,18.25208 -28.31097,33.13301 -1.221477,3.91412 -1.361757,5.47244 -1.361757,15.12727 0,9.65895 0.139893,11.21148 1.363061,15.12727 5.602252,17.93478 18.350724,30.67037 36.649843,36.6128 l 5.041641,1.63722 59.927272,0.4089 59.92727,0.40891 2.07918,1.41954 c 6.07598,4.14831 6.07066,12.31135 -0.0109,16.79821 l -2.0034,1.47806 -58.21424,-0.0738 c -32.017828,-0.0406 -59.785142,-0.27972 -61.705142,-0.53144 z M 402.77667,148.96503 c 17.86253,-2.05386 34.62446,-15.25696 41.84083,-32.9573 2.56636,-6.29481 3.63281,-12.16829 3.63281,-20.00773 0,-11.492305 -2.5688,-20.244447 -8.65207,-29.478429 -8.3347,-12.651493 -22.20649,-21.641594 -36.1956,-23.457835 -2.62371,-0.340642 -68.81961,-0.562021 -171.35017,-0.573045 l -167.074812,-0.01796 -5.239563,1.71221 C 41.186587,50.247288 28.516057,62.86281 22.890334,80.872727 21.667166,84.788521 21.527273,86.34105 21.527273,96 c 0,9.65956 0.139542,11.20799 1.360399,15.0956 2.994708,9.53616 9.539764,19.81205 16.182759,25.40731 7.726489,6.50785 17.442416,11.14057 26.093205,12.44166 4.388469,0.66003 331.878034,0.67988 337.613034,0.0205 z"
     id="path880"
     transform="scale(0.046875)" />
  <path
     style="fill:#000000;fill-opacity:0;stroke-width:10.995"
     d="M 64.581818,425.28569 C 44.56195,422.66105 24.720133,410.16343 13.408781,393.05371 4.8423612,380.09602 0.87853033,367.18323 0.87458612,352.22167 0.86834013,328.52882 11.538143,307.32133 30.872811,292.59664 c 3.019954,-2.2999 5.490825,-4.39562 5.490825,-4.65714 0,-0.26154 -1.950105,-1.91769 -4.333566,-3.68034 C 21.815728,276.7053 14.26276,267.87793 8.7523799,257.05386 3.3673165,246.47595 0.87272727,236.01155 0.87272727,224 c 0,-23.46664 10.74205073,-44.73704 30.00008373,-59.40336 3.019954,-2.2999 5.490825,-4.39562 5.490825,-4.65714 0,-0.26154 -2.029091,-1.96156 -4.509091,-3.77785 C 19.8319,147.35659 9.4922577,133.62462 4.9968642,120.49225 2.2734147,112.53624 1.3669807,107.51329 1.0420905,98.5771 0.67177449,88.391453 1.5562891,81.783558 4.445021,73.155016 12.661881,48.611539 32.048646,30.727537 57.679017,24.047449 L 64,22.4 h 170.47273 c 183.96461,0 171.77128,-0.203413 182.08903,3.037669 23.99762,7.538302 43.43292,27.896455 49.54584,51.898442 4.01646,15.770397 2.90769,32.516309 -3.07973,46.513359 -5.5455,12.96399 -14.27768,24.07008 -25.35514,32.24814 -2.48,1.83089 -4.50909,3.57046 -4.50909,3.86572 0,0.29525 2.47124,2.39425 5.49164,4.66444 9.3931,7.06 17.19267,16.58494 22.38879,27.34145 2.75271,5.69842 2.95768,8.05064 1.02137,11.72109 -2.61195,4.95117 -8.59374,6.6243 -13.46888,3.76727 -1.98573,-1.16372 -2.97653,-2.46479 -5.57669,-7.32307 -7.46176,-13.94199 -17.43183,-22.44347 -32.1605,-27.42329 l -6.49573,-2.19623 -169.53728,-0.0211 -169.537266,-0.0211 -4.135459,1.21233 c -6.469424,1.89655 -15.278496,6.49219 -20.568656,10.73052 -7.98326,6.39598 -13.554263,14.43336 -17.128572,24.71169 -1.912849,5.50062 -1.922136,5.58059 -1.925626,16.58182 -0.0031,9.96989 0.130233,11.4827 1.359553,15.41818 5.602123,17.93437 18.346528,30.66625 36.649843,36.61384 l 5.041641,1.63826 70.690912,0.40845 70.69091,0.40845 2.11133,1.37257 c 2.42766,1.57821 4.57958,5.53995 4.57958,8.43116 0,2.89147 -2.15191,6.853 -4.57958,8.43077 l -2.11133,1.37216 -70.4,0.38652 c -79.971912,0.43908 -72.956356,-0.0225 -84.36364,5.55027 -13.85465,6.76835 -23.667087,18.25208 -28.31097,33.13301 -1.221477,3.91412 -1.361757,5.47244 -1.361757,15.12727 0,9.65895 0.139893,11.21148 1.363061,15.12727 5.602252,17.93478 18.350724,30.67037 36.649843,36.6128 l 5.041641,1.63722 59.927272,0.4089 59.92727,0.40891 2.07918,1.41954 c 6.07598,4.14831 6.07066,12.31135 -0.0109,16.79821 l -2.0034,1.47806 -58.21424,-0.0738 c -32.017828,-0.0406 -59.785142,-0.27972 -61.705142,-0.53144 z M 402.77667,148.96503 c 17.86253,-2.05386 34.62446,-15.25696 41.84083,-32.9573 2.56636,-6.29481 3.63281,-12.16829 3.63281,-20.00773 0,-11.492305 -2.5688,-20.244447 -8.65207,-29.478429 -8.3347,-12.651493 -22.20649,-21.641594 -36.1956,-23.457835 -2.62371,-0.340642 -68.81961,-0.562021 -171.35017,-0.573045 l -167.074812,-0.01796 -5.239563,1.71221 C 41.186587,50.247288 28.516057,62.86281 22.890334,80.872727 21.667166,84.788521 21.527273,86.34105 21.527273,96 c 0,9.65956 0.139542,11.20799 1.360399,15.0956 2.994708,9.53616 9.539764,19.81205 16.182759,25.40731 7.726489,6.50785 17.442416,11.14057 26.093205,12.44166 4.388469,0.66003 331.878034,0.67988 337.613034,0.0205 z"
     id="path882"
     transform="scale(0.046875)" />
  <path
     style="fill:#000000;fill-opacity:0;stroke-width:10.995"
     d="M 64.581818,425.28569 C 44.56195,422.66105 24.720133,410.16343 13.408781,393.05371 4.8423612,380.09602 0.87853033,367.18323 0.87458612,352.22167 0.86834013,328.52882 11.538143,307.32133 30.872811,292.59664 c 3.019954,-2.2999 5.490825,-4.39562 5.490825,-4.65714 0,-0.26154 -1.950105,-1.91769 -4.333566,-3.68034 C 21.815728,276.7053 14.26276,267.87793 8.7523799,257.05386 3.3673165,246.47595 0.87272727,236.01155 0.87272727,224 c 0,-23.46664 10.74205073,-44.73704 30.00008373,-59.40336 3.019954,-2.2999 5.490825,-4.39562 5.490825,-4.65714 0,-0.26154 -2.029091,-1.96156 -4.509091,-3.77785 C 19.8319,147.35659 9.4922577,133.62462 4.9968642,120.49225 2.2734147,112.53624 1.3669807,107.51329 1.0420905,98.5771 0.67177449,88.391453 1.5562891,81.783558 4.445021,73.155016 12.661881,48.611539 32.048646,30.727537 57.679017,24.047449 L 64,22.4 h 170.47273 c 183.96461,0 171.77128,-0.203413 182.08903,3.037669 23.99762,7.538302 43.43292,27.896455 49.54584,51.898442 4.01646,15.770397 2.90769,32.516309 -3.07973,46.513359 -5.5455,12.96399 -14.27768,24.07008 -25.35514,32.24814 -2.48,1.83089 -4.50909,3.57046 -4.50909,3.86572 0,0.29525 2.47124,2.39425 5.49164,4.66444 9.3931,7.06 17.19267,16.58494 22.38879,27.34145 2.75271,5.69842 2.95768,8.05064 1.02137,11.72109 -2.61195,4.95117 -8.59374,6.6243 -13.46888,3.76727 -1.98573,-1.16372 -2.97653,-2.46479 -5.57669,-7.32307 -7.46176,-13.94199 -17.43183,-22.44347 -32.1605,-27.42329 l -6.49573,-2.19623 -169.53728,-0.0211 -169.537266,-0.0211 -4.135459,1.21233 c -6.469424,1.89655 -15.278496,6.49219 -20.568656,10.73052 -7.98326,6.39598 -13.554263,14.43336 -17.128572,24.71169 -1.912849,5.50062 -1.922136,5.58059 -1.925626,16.58182 -0.0031,9.96989 0.130233,11.4827 1.359553,15.41818 5.602123,17.93437 18.346528,30.66625 36.649843,36.61384 l 5.041641,1.63826 70.690912,0.40845 70.69091,0.40845 2.11133,1.37257 c 2.42766,1.57821 4.57958,5.53995 4.57958,8.43116 0,2.89147 -2.15191,6.853 -4.57958,8.43077 l -2.11133,1.37216 -70.4,0.38652 c -79.971912,0.43908 -72.956356,-0.0225 -84.36364,5.55027 -13.85465,6.76835 -23.667087,18.25208 -28.31097,33.13301 -1.221477,3.91412 -1.361757,5.47244 -1.361757,15.12727 0,9.65895 0.139893,11.21148 1.363061,15.12727 5.602252,17.93478 18.350724,30.67037 36.649843,36.6128 l 5.041641,1.63722 59.927272,0.4089 59.92727,0.40891 2.07918,1.41954 c 6.07598,4.14831 6.07066,12.31135 -0.0109,16.79821 l -2.0034,1.47806 -58.21424,-0.0738 c -32.017828,-0.0406 -59.785142,-0.27972 -61.705142,-0.53144 z M 402.77667,148.96503 c 17.86253,-2.05386 34.62446,-15.25696 41.84083,-32.9573 2.56636,-6.29481 3.63281,-12.16829 3.63281,-20.00773 0,-11.492305 -2.5688,-20.244447 -8.65207,-29.478429 -8.3347,-12.651493 -22.20649,-21.641594 -36.1956,-23.457835 -2.62371,-0.340642 -68.81961,-0.562021 -171.35017,-0.573045 l -167.074812,-0.01796 -5.239563,1.71221 C 41.186587,50.247288 28.516057,62.86281 22.890334,80.872727 21.667166,84.788521 21.527273,86.34105 21.527273,96 c 0,9.65956 0.139542,11.20799 1.360399,15.0956 2.994708,9.53616 9.539764,19.81205 16.182759,25.40731 7.726489,6.50785 17.442416,11.14057 26.093205,12.44166 4.388469,0.66003 331.878034,0.67988 337.613034,0.0205 z"
     id="path884"
     transform="scale(0.046875)" />
  <path
     style="fill:#000000;fill-opacity:0;stroke-width:10.995"
     d="M 64.581818,425.28569 C 44.56195,422.66105 24.720133,410.16343 13.408781,393.05371 4.8423612,380.09602 0.87853033,367.18323 0.87458612,352.22167 0.86834013,328.52882 11.538143,307.32133 30.872811,292.59664 c 3.019954,-2.2999 5.490825,-4.39562 5.490825,-4.65714 0,-0.26154 -1.950105,-1.91769 -4.333566,-3.68034 C 21.815728,276.7053 14.26276,267.87793 8.7523799,257.05386 3.3673165,246.47595 0.87272727,236.01155 0.87272727,224 c 0,-23.46664 10.74205073,-44.73704 30.00008373,-59.40336 3.019954,-2.2999 5.490825,-4.39562 5.490825,-4.65714 0,-0.26154 -2.029091,-1.96156 -4.509091,-3.77785 C 19.8319,147.35659 9.4922577,133.62462 4.9968642,120.49225 2.2734147,112.53624 1.3669807,107.51329 1.0420905,98.5771 0.67177449,88.391453 1.5562891,81.783558 4.445021,73.155016 12.661881,48.611539 32.048646,30.727537 57.679017,24.047449 L 64,22.4 h 170.47273 c 183.96461,0 171.77128,-0.203413 182.08903,3.037669 23.99762,7.538302 43.43292,27.896455 49.54584,51.898442 4.01646,15.770397 2.90769,32.516309 -3.07973,46.513359 -5.5455,12.96399 -14.27768,24.07008 -25.35514,32.24814 -2.48,1.83089 -4.50909,3.57046 -4.50909,3.86572 0,0.29525 2.47124,2.39425 5.49164,4.66444 9.3931,7.06 17.19267,16.58494 22.38879,27.34145 2.75271,5.69842 2.95768,8.05064 1.02137,11.72109 -2.61195,4.95117 -8.59374,6.6243 -13.46888,3.76727 -1.98573,-1.16372 -2.97653,-2.46479 -5.57669,-7.32307 -7.46176,-13.94199 -17.43183,-22.44347 -32.1605,-27.42329 l -6.49573,-2.19623 -169.53728,-0.0211 -169.537266,-0.0211 -4.135459,1.21233 c -6.469424,1.89655 -15.278496,6.49219 -20.568656,10.73052 -7.98326,6.39598 -13.554263,14.43336 -17.128572,24.71169 -1.912849,5.50062 -1.922136,5.58059 -1.925626,16.58182 -0.0031,9.96989 0.130233,11.4827 1.359553,15.41818 5.602123,17.93437 18.346528,30.66625 36.649843,36.61384 l 5.041641,1.63826 70.690912,0.40845 70.69091,0.40845 2.11133,1.37257 c 2.42766,1.57821 4.57958,5.53995 4.57958,8.43116 0,2.89147 -2.15191,6.853 -4.57958,8.43077 l -2.11133,1.37216 -70.4,0.38652 c -79.971912,0.43908 -72.956356,-0.0225 -84.36364,5.55027 -13.85465,6.76835 -23.667087,18.25208 -28.31097,33.13301 -1.221477,3.91412 -1.361757,5.47244 -1.361757,15.12727 0,9.65895 0.139893,11.21148 1.363061,15.12727 5.602252,17.93478 18.350724,30.67037 36.649843,36.6128 l 5.041641,1.63722 59.927272,0.4089 59.92727,0.40891 2.07918,1.41954 c 6.07598,4.14831 6.07066,12.31135 -0.0109,16.79821 l -2.0034,1.47806 -58.21424,-0.0738 c -32.017828,-0.0406 -59.785142,-0.27972 -61.705142,-0.53144 z M 402.77667,148.96503 c 17.86253,-2.05386 34.62446,-15.25696 41.84083,-32.9573 2.56636,-6.29481 3.63281,-12.16829 3.63281,-20.00773 0,-11.492305 -2.5688,-20.244447 -8.65207,-29.478429 -8.3347,-12.651493 -22.20649,-21.641594 -36.1956,-23.457835 -2.62371,-0.340642 -68.81961,-0.562021 -171.35017,-0.573045 l -167.074812,-0.01796 -5.239563,1.71221 C 41.186587,50.247288 28.516057,62.86281 22.890334,80.872727 21.667166,84.788521 21.527273,86.34105 21.527273,96 c 0,9.65956 0.139542,11.20799 1.360399,15.0956 2.994708,9.53616 9.539764,19.81205 16.182759,25.40731 7.726489,6.50785 17.442416,11.14057 26.093205,12.44166 4.388469,0.66003 331.878034,0.67988 337.613034,0.0205 z"
     id="path886"
     transform="scale(0.046875)" />
  <path
     style="fill:#4caf50;fill-opacity:1;stroke-width:10.995"
     d="M 64.581818,425.28569 C 44.56195,422.66105 24.720133,410.16343 13.408781,393.05371 4.8423612,380.09602 0.87853033,367.18323 0.87458612,352.22167 0.86834013,328.52882 11.538143,307.32133 30.872811,292.59664 c 3.019954,-2.2999 5.490825,-4.39562 5.490825,-4.65714 0,-0.26154 -1.950105,-1.91769 -4.333566,-3.68034 C 21.815728,276.7053 14.26276,267.87793 8.7523799,257.05386 3.3673165,246.47595 0.87272727,236.01155 0.87272727,224 c 0,-23.46664 10.74205073,-44.73704 30.00008373,-59.40336 3.019954,-2.2999 5.490825,-4.39562 5.490825,-4.65714 0,-0.26154 -2.029091,-1.96156 -4.509091,-3.77785 C 19.8319,147.35659 9.4922577,133.62462 4.9968642,120.49225 2.2734147,112.53624 1.3669807,107.51329 1.0420905,98.5771 0.67177449,88.391453 1.5562891,81.783558 4.445021,73.155016 12.661881,48.611539 32.048646,30.727537 57.679017,24.047449 L 64,22.4 h 170.47273 c 183.96461,0 171.77128,-0.203413 182.08903,3.037669 23.99762,7.538302 43.43292,27.896455 49.54584,51.898442 4.01646,15.770397 2.90769,32.516309 -3.07973,46.513359 -5.5455,12.96399 -14.27768,24.07008 -25.35514,32.24814 -2.48,1.83089 -4.50909,3.57046 -4.50909,3.86572 0,0.29525 2.47124,2.39425 5.49164,4.66444 9.3931,7.06 17.19267,16.58494 22.38879,27.34145 2.75271,5.69842 2.95768,8.05064 1.02137,11.72109 -2.61195,4.95117 -8.59374,6.6243 -13.46888,3.76727 -1.98573,-1.16372 -2.97653,-2.46479 -5.57669,-7.32307 -7.46176,-13.94199 -17.43183,-22.44347 -32.1605,-27.42329 l -6.49573,-2.19623 -169.53728,-0.0211 -169.537266,-0.0211 -4.135459,1.21233 c -6.469424,1.89655 -15.278496,6.49219 -20.568656,10.73052 -7.98326,6.39598 -13.554263,14.43336 -17.128572,24.71169 -1.912849,5.50062 -1.922136,5.58059 -1.925626,16.58182 -0.0031,9.96989 0.130233,11.4827 1.359553,15.41818 5.602123,17.93437 18.346528,30.66625 36.649843,36.61384 l 5.041641,1.63826 70.690912,0.40845 70.69091,0.40845 2.11133,1.37257 c 2.42766,1.57821 4.57958,5.53995 4.57958,8.43116 0,2.89147 -2.15191,6.853 -4.57958,8.43077 l -2.11133,1.37216 -70.4,0.38652 c -79.971912,0.43908 -72.956356,-0.0225 -84.36364,5.55027 -13.85465,6.76835 -23.667087,18.25208 -28.31097,33.13301 -1.221477,3.91412 -1.361757,5.47244 -1.361757,15.12727 0,9.65895 0.139893,11.21148 1.363061,15.12727 5.602252,17.93478 18.350724,30.67037 36.649843,36.6128 l 5.041641,1.63722 59.927272,0.4089 59.92727,0.40891 2.07918,1.41954 c 6.07598,4.14831 6.07066,12.31135 -0.0109,16.79821 l -2.0034,1.47806 -58.21424,-0.0738 c -32.017828,-0.0406 -59.785142,-0.27972 -61.705142,-0.53144 z M 402.77667,148.96503 c 17.86253,-2.05386 34.62446,-15.25696 41.84083,-32.9573 2.56636,-6.29481 3.63281,-12.16829 3.63281,-20.00773 0,-11.492305 -2.5688,-20.244447 -8.65207,-29.478429 -8.3347,-12.651493 -22.20649,-21.641594 -36.1956,-23.457835 -2.62371,-0.340642 -68.81961,-0.562021 -171.35017,-0.573045 l -167.074812,-0.01796 -5.239563,1.71221 C 41.186587,50.247288 28.516057,62.86281 22.890334,80.872727 21.667166,84.788521 21.527273,86.34105 21.527273,96 c 0,9.65956 0.139542,11.20799 1.360399,15.0956 2.994708,9.53616 9.539764,19.81205 16.182759,25.40731 7.726489,6.50785 17.442416,11.14057 26.093205,12.44166 4.388469,0.66003 331.878034,0.67988 337.613034,0.0205 z"
     id="path888"
     transform="scale(0.046875)" />
  <path
     style="fill:#4caf50;fill-opacity:1;stroke-width:10.995"
     d="m 90.472727,126.80331 c -4.812284,-0.82074 -12.12021,-4.6603 -15.842541,-8.32364 -6.075959,-5.97965 -9.168465,-12.65777 -9.614728,-20.762533 -0.341284,-6.198191 0.513063,-10.436586 3.177154,-15.761791 5.251063,-10.496255 16.141369,-17.065009 28.098297,-16.948172 8.806041,0.08605 15.497551,2.855427 21.612011,8.944436 6.52976,6.502588 9.63004,14.63803 9.0958,23.86827 -1.06941,18.47649 -18.24076,32.10198 -36.525993,28.98343 z m 9.367725,-20.40975 c 2.308738,-0.77161 4.936978,-3.04296 6.102398,-5.27376 0.96789,-1.85269 1.0818,-7.262308 0.20195,-9.591015 -1.48215,-3.922856 -5.55904,-6.58333 -10.088237,-6.58333 -7.68137,0 -12.525449,6.470017 -10.548923,14.089721 1.659877,6.398984 7.788725,9.545504 14.332812,7.358384 z"
     id="path890"
     transform="scale(0.046875)" />
  <path
     style="fill:#4caf50;fill-opacity:1;stroke-width:10.995"
     d="m 193.71468,126.01996 c -4.76227,-1.49159 -9.57934,-4.58009 -13.30767,-8.53232 -11.90481,-12.61972 -11.95582,-30.301477 -0.12361,-42.844243 6.32538,-6.705236 13.00785,-9.479761 22.8321,-9.479761 9.05423,0 15.29644,2.655225 21.7383,9.246745 13.60174,13.91773 11.19161,36.756439 -5.01396,47.513089 -5.50257,3.6524 -9.93306,4.89266 -17.36711,4.8617 -3.52,-0.0147 -7.46112,-0.359 -8.75805,-0.76521 z m 13.28583,-19.7492 c 2.63824,-1.10447 6.09217,-5.13138 6.56555,-7.654716 1.45434,-7.752274 -4.08358,-14.178866 -11.67566,-13.549272 -11.81288,0.979616 -14.1412,16.949008 -3.11503,21.365258 2.02624,0.81156 6.09174,0.73185 8.22514,-0.16127 z"
     id="path892"
     transform="scale(0.046875)" />
  <path
     style="fill:#4caf50;fill-opacity:1;stroke-width:10.995"
     d="m 193.71468,254.01996 c -4.76227,-1.49159 -9.57934,-4.58009 -13.30767,-8.53232 -11.90481,-12.61972 -11.95582,-30.30148 -0.12361,-42.84424 6.32538,-6.70524 13.00785,-9.47976 22.8321,-9.47976 9.05423,0 15.29644,2.65522 21.7383,9.24674 13.60174,13.91773 11.19161,36.75644 -5.01396,47.51309 -5.50257,3.6524 -9.93306,4.89266 -17.36711,4.8617 -3.52,-0.0147 -7.46112,-0.359 -8.75805,-0.76521 z m 13.28583,-19.7492 c 2.63824,-1.10447 6.09217,-5.13138 6.56555,-7.65472 1.45434,-7.75227 -4.08358,-14.17886 -11.67566,-13.54927 -11.81288,0.97962 -14.1412,16.94901 -3.11503,21.36526 2.02624,0.81156 6.09174,0.73185 8.22514,-0.16127 z"
     id="path894"
     transform="scale(0.046875)" />
  <path
     style="fill:#4caf50;fill-opacity:1;stroke-width:10.995"
     d="m 90.472727,254.80331 c -4.812284,-0.82074 -12.12021,-4.6603 -15.842541,-8.32364 -6.075959,-5.97965 -9.168465,-12.65777 -9.614728,-20.76253 -0.341284,-6.19819 0.513063,-10.43659 3.177154,-15.76179 5.251063,-10.49626 16.141369,-17.06501 28.098297,-16.94818 8.806041,0.0861 15.497551,2.85543 21.612011,8.94444 6.52976,6.50259 9.63004,14.63803 9.0958,23.86827 -1.06941,18.47649 -18.24076,32.10198 -36.525993,28.98343 z m 9.367725,-20.40975 c 2.308738,-0.77161 4.936978,-3.04296 6.102398,-5.27376 0.96789,-1.85269 1.0818,-7.26231 0.20195,-9.59101 -1.48215,-3.92286 -5.55904,-6.58334 -10.088237,-6.58334 -7.68137,0 -12.525449,6.47002 -10.548923,14.08973 1.659877,6.39898 7.788725,9.5455 14.332812,7.35838 z"
     id="path896"
     transform="scale(0.046875)" />
  <path
     style="fill:#4caf50;fill-opacity:1;stroke-width:10.995"
     d="M 92.218182,383.33266 C 74.537082,381.52369 61.297917,363.43847 64.936659,346.065 68.117224,330.87914 80.726587,320.51635 96,320.53614 c 15.06987,0.0195 27.328,9.85843 30.8642,24.77295 4.17542,17.61049 -9.02573,36.14196 -27.082382,38.01764 -2.08,0.21607 -5.483636,0.21874 -7.563636,0.006 z m 9.971258,-22.29859 c 6.21486,-4.1128 6.10874,-14.02557 -0.19481,-18.19706 -3.451969,-2.2844 -8.537291,-2.2844 -11.989262,0 -7.51576,4.9737 -5.893103,16.91635 2.673241,19.67489 2.586061,0.83276 7.072776,0.1356 9.510831,-1.47783 z"
     id="path898"
     transform="scale(0.046875)" />
  <path
     style="fill:#4caf50;fill-opacity:1;stroke-width:10.995"
     d="m 193.61158,381.9464 c -11.01361,-3.46773 -20.04826,-14.01563 -21.78795,-25.43731 -1.4917,-9.79355 1.64455,-18.98308 8.98116,-26.31569 6.30832,-6.30487 12.58954,-9.02976 20.81477,-9.02976 5.39438,0 7.71976,1.24779 9.72589,5.21888 1.58321,3.13392 1.63568,5.35119 0.20138,8.50939 -1.36347,3.00224 -4.21782,4.80711 -9.27732,5.86624 -7.04383,1.47452 -10.56042,5.21802 -10.56042,11.24185 0,6.04239 3.41773,9.65345 10.71939,11.32574 5.20595,1.19231 7.5314,2.67521 9.02115,5.75262 1.54745,3.19661 1.52153,5.32107 -0.10418,8.53912 -2.0842,4.12563 -4.28153,5.23017 -10.26785,5.16136 -2.75268,-0.0317 -6.11239,-0.40624 -7.46602,-0.83244 z"
     id="path900"
     transform="scale(0.046875)" />
  <path
     style="fill:#4caf50;fill-opacity:1;stroke-width:10.995"
     d="m 360.72727,510.803 c -48.09322,-5.00172 -89.60635,-33.66177 -111.11392,-76.71139 -5.87351,-11.75645 -9.85032,-23.94715 -12.35492,-37.87343 -1.34039,-7.45297 -1.52196,-10.03014 -1.55765,-22.10909 -0.0444,-15.0367 0.66518,-21.40911 3.75781,-33.74545 2.46919,-9.84943 5.43998,-17.75401 10.48751,-27.90475 19.70126,-39.61981 53.52269,-65.36303 98.27208,-74.7999 6.25961,-1.32004 9.19239,-1.57842 21.05308,-1.85476 9.17642,-0.2138 15.68822,-0.0855 19.49091,0.38406 31.98052,3.94891 63.02604,19.49873 84.54149,42.34442 24.40631,25.91528 37.82361,59.45853 37.82361,94.55902 0,24.13354 -5.37889,45.03955 -17.10251,66.47191 -20.57963,37.62234 -58.54869,64.03905 -101.13232,70.36211 -7.60258,1.12887 -25.1453,1.60732 -32.16517,0.87725 z m 25.32435,-20.3452 c 41.34199,-5.00403 76.25606,-29.76654 93.61707,-66.39713 7.80943,-16.47737 11.06508,-31.27133 11.08429,-50.36794 0.0199,-19.81261 -3.32312,-35.06645 -11.32105,-51.65637 -13.72318,-28.46567 -38.95007,-50.57284 -68.98497,-60.45383 -14.05241,-4.62302 -18.754,-5.29162 -37.2106,-5.29162 -14.43586,0 -16.65409,0.13217 -22.69091,1.35205 -49.29662,9.96154 -87.00919,49.91499 -93.92611,99.50721 -1.17737,8.44141 -1.18029,23.71007 -0.006,32.12838 7.43357,53.29646 49.25531,94.37352 102.95044,101.11729 5.80635,0.72924 20.68748,0.76405 26.48798,0.062 z"
     id="path924"
     transform="scale(0.046875)" />
  <path
     style="fill:#4caf50;fill-opacity:1;stroke-width:10.995"
     d="m 367.94058,445.50476 c -1.08731,-0.73239 -2.54244,-2.36875 -3.23361,-3.63637 -1.21924,-2.23612 -1.26915,-3.12946 -1.67615,-30.00031 l -0.41949,-27.69555 -26.83294,-0.40892 c -15.17105,-0.23121 -27.82912,-0.67065 -29.12506,-1.01113 -2.92176,-0.76761 -5.82594,-3.66417 -6.7431,-6.7254 -1.38171,-4.61173 0.5892,-9.11 4.90744,-11.20043 2.61988,-1.26826 3.26471,-1.3028 30.31139,-1.62385 15.19902,-0.18041 27.66604,-0.35303 27.70449,-0.38359 0.0385,-0.0305 0.23482,-12.75376 0.43637,-28.27376 0.35157,-27.0729 0.41498,-28.30081 1.5625,-30.25422 4.04841,-6.89156 15.74502,-5.75574 17.68582,1.71742 0.29482,1.13524 0.72026,14.39322 0.94542,29.46216 l 0.40938,27.39808 27.93876,0.40079 c 30.96674,0.44423 30.4413,0.37622 33.45741,4.33054 1.31441,1.72329 1.56715,2.63971 1.56715,5.68231 0,3.18429 -0.21978,3.90089 -1.79831,5.86347 -3.2432,4.03222 -2.22416,3.89793 -33.01525,4.35068 -15.30745,0.22508 -28.00564,0.58301 -28.21818,0.79541 -0.21254,0.2124 -0.47497,12.99721 -0.58319,28.41068 l -0.19675,28.0245 -1.47064,1.94045 c -2.2633,2.98632 -4.63108,4.16397 -8.37709,4.16647 -2.43525,0.002 -3.7593,-0.33453 -5.23637,-1.32943 z"
     id="path926"
     transform="scale(0.046875)" />
</svg>
